<?xml version="1.0" encoding="utf-8"?><svg xmlns="http://www.w3.org/2000/svg" xmlns:xlink="http://www.w3.org/1999/xlink" width="221px" height="221px" viewBox="0 0 100 100" preserveAspectRatio="xMidYMid" style="display:block;animation-play-state:paused" ><g transform="rotate(0 50 50)" style="animation-play-state:paused" ><rect x="45" y="25" rx="5" ry="5" width="10" height="10" fill="#ffffff" opacity="0.125" style="opacity:0.125;animation-play-state:paused" ></rect></g>
<g transform="rotate(45 50 50)" style="animation-play-state:paused" ><rect x="45" y="25" rx="5" ry="5" width="10" height="10" fill="#f5fdff" opacity="0.25" style="opacity:0.25;animation-play-state:paused" ></rect></g>
<g transform="rotate(90 50 50)" style="animation-play-state:paused" ><rect x="45" y="25" rx="5" ry="5" width="10" height="10" fill="#e7f6ff" opacity="0.375" style="opacity:0.375;animation-play-state:paused" ></rect></g>
<g transform="rotate(135 50 50)" style="animation-play-state:paused" ><rect x="45" y="25" rx="5" ry="5" width="10" height="10" fill="#dbecff" opacity="0.5" style="opacity:0.5;animation-play-state:paused" ></rect></g>
<g transform="rotate(180 50 50)" style="animation-play-state:paused" ><rect x="45" y="25" rx="5" ry="5" width="10" height="10" fill="#d3e6ff" opacity="0.625" style="opacity:0.625;animation-play-state:paused" ></rect></g>
<g transform="rotate(225 50 50)" style="animation-play-state:paused" ><rect x="45" y="25" rx="5" ry="5" width="10" height="10" fill="#ffffff" opacity="0.75" style="opacity:0.75;animation-play-state:paused" ></rect></g>
<g transform="rotate(270 50 50)" style="animation-play-state:paused" ><rect x="45" y="25" rx="5" ry="5" width="10" height="10" fill="#f5fdff" opacity="0.875" style="opacity:0.875;animation-play-state:paused" ></rect></g>
<g transform="rotate(315 50 50)" style="animation-play-state:paused" ><rect x="45" y="25" rx="5" ry="5" width="10" height="10" fill="#e7f6ff" opacity="1" style="animation-play-state:paused" ></rect></g><!-- generated by https://loading.io/ --></svg>